<?xml version="1.0" encoding="UTF-8" standalone="no"?>
<!-- Created with Inkscape (http://www.inkscape.org/) -->

<svg
   xmlns:dc="http://purl.org/dc/elements/1.1/"
   xmlns:cc="http://creativecommons.org/ns#"
   xmlns:rdf="http://www.w3.org/1999/02/22-rdf-syntax-ns#"
   xmlns:svg="http://www.w3.org/2000/svg"
   xmlns="http://www.w3.org/2000/svg"
   xmlns:sodipodi="http://sodipodi.sourceforge.net/DTD/sodipodi-0.dtd"
   xmlns:inkscape="http://www.inkscape.org/namespaces/inkscape"
   width="300"
   height="100"
   viewBox="0 0 79.374998 26.458333"
   version="1.1"
   id="svg8"
   inkscape:version="0.92.5 (2060ec1f9f, 2020-04-08)"
   sodipodi:docname="Nouveau_logo_P1.svg">
  <defs
     id="defs2" />
  <sodipodi:namedview
     id="base"
     pagecolor="#ffffff"
     bordercolor="#666666"
     borderopacity="1.0"
     inkscape:pageopacity="0.0"
     inkscape:pageshadow="2"
     inkscape:zoom="1.979899"
     inkscape:cx="136.9025"
     inkscape:cy="39.566216"
     inkscape:document-units="mm"
     inkscape:current-layer="layer1"
     showgrid="false"
     units="px"
     inkscape:window-width="1288"
     inkscape:window-height="704"
     inkscape:window-x="72"
     inkscape:window-y="27"
     inkscape:window-maximized="1" />
  <metadata
     id="metadata5">
    <rdf:RDF>
      <cc:Work
         rdf:about="">
        <dc:format>image/svg+xml</dc:format>
        <dc:type
           rdf:resource="http://purl.org/dc/dcmitype/StillImage" />
        <dc:title></dc:title>
      </cc:Work>
    </rdf:RDF>
  </metadata>
  <g
     inkscape:label="Calque 1"
     inkscape:groupmode="layer"
     id="layer1"
     transform="translate(0,-270.54167)">
    <circle
       style="fill:none;fill-opacity:1;stroke:#fa6400;stroke-width:1.42927917;stroke-miterlimit:4;stroke-dasharray:none;stroke-opacity:1"
       id="path826"
       r="7.6171813"
       cy="283.77017"
       cx="10.077961" />
    <g
       aria-label="P1"
       style="font-style:normal;font-variant:normal;font-weight:normal;font-stretch:normal;font-size:10.36809444px;line-height:1.25;font-family:'Arial Black';-inkscape-font-specification:'Arial Black, ';letter-spacing:0px;word-spacing:0px;fill:#fa6400;fill-opacity:1;stroke:none;stroke-width:0.25920236"
       id="text857">
      <path
         d="m 4.7623526,287.49036 v -7.4217 h 2.4047095 q 1.3668874,0 1.7820162,0.11138 0.6378808,0.16706 1.0681977,0.72901 0.430316,0.55688 0.430316,1.44282 0,0.68345 -0.248065,1.1492 -0.2480646,0.46575 -0.6328181,0.73407 -0.3796909,0.26325 -0.7745695,0.34931 -0.5366299,0.10632 -1.5542017,0.10632 H 6.2608663 v 2.79959 z m 1.4985137,-6.16618 v 2.10601 h 0.8201325 q 0.8859455,0 1.1846358,-0.11643 0.2986902,-0.11644 0.4657542,-0.36451 0.1721266,-0.24806 0.1721266,-0.57713 0,-0.405 -0.2379397,-0.66825 -0.2379397,-0.26326 -0.602443,-0.32907 -0.2683149,-0.0506 -1.0783223,-0.0506 z"
         style="font-style:normal;font-variant:normal;font-weight:normal;font-stretch:normal;font-family:Arial;-inkscape-font-specification:Arial;fill:#fa6400;fill-opacity:1;stroke-width:0.25920236"
         id="path883" />
      <path
         d="m 15.003884,287.49036 h -1.422576 v -5.36124 q -0.779632,0.72901 -1.837704,1.07832 v -1.29095 q 0.55688,-0.18225 1.209948,-0.6885 0.653069,-0.51132 0.896071,-1.1897 h 1.154261 z"
         style="font-style:normal;font-variant:normal;font-weight:normal;font-stretch:normal;font-family:Arial;-inkscape-font-specification:Arial;fill:#fa6400;fill-opacity:1;stroke-width:0.25920236"
         id="path885" />
    </g>
    <g
       aria-label="P1 Security"
       transform="matrix(0.2567898,0,0,0.26458333,0.4540769,269.30555)"
       style="font-style:normal;font-weight:normal;font-size:40px;line-height:1.25;font-family:sans-serif;letter-spacing:0px;word-spacing:0px;fill:#464646;fill-opacity:1;stroke:none"
       id="flowRoot819">
      <path
         d="M 75.410156,52.102443 V 23.46963 H 84.6875 q 5.273437,0 6.875,0.429688 2.460937,0.644531 4.121094,2.8125 1.660156,2.148437 1.660156,5.566406 0,2.636719 -0.957031,4.433594 -0.957032,1.796875 -2.441407,2.832031 -1.464843,1.015625 -2.988281,1.347656 -2.070312,0.410156 -5.996094,0.410156 h -3.769531 v 10.800782 z m 5.78125,-23.789063 v 8.125 h 3.164063 q 3.417968,0 4.570312,-0.449219 1.152344,-0.449218 1.796875,-1.40625 0.664063,-0.957031 0.664063,-2.226562 0,-1.5625 -0.917969,-2.578125 -0.917969,-1.015625 -2.324219,-1.269531 -1.035156,-0.195313 -4.160156,-0.195313 z"
         style="font-style:normal;font-variant:normal;font-weight:normal;font-stretch:normal;font-family:Arial;-inkscape-font-specification:Arial;fill:#464646;fill-opacity:1"
         id="path823" />
      <path
         d="m 114.92188,52.102443 h -5.48829 V 31.418849 q -3.00781,2.8125 -7.08984,4.160156 v -4.980469 q 2.14844,-0.703125 4.66797,-2.65625 2.51953,-1.972656 3.45703,-4.589843 h 4.45313 z"
         style="font-style:normal;font-variant:normal;font-weight:normal;font-stretch:normal;font-family:Arial;-inkscape-font-specification:Arial;fill:#464646;fill-opacity:1"
         id="path825" />
      <path
         d="m 133.98437,42.786036 5.625,-0.546875 q 0.50782,2.832032 2.05079,4.160157 1.5625,1.328125 4.19921,1.328125 2.79297,0 4.19922,-1.171875 1.42578,-1.191407 1.42578,-2.773438 0,-1.015625 -0.60546,-1.71875 -0.58594,-0.722656 -2.07032,-1.25 -1.01562,-0.351562 -4.6289,-1.25 -4.64844,-1.152344 -6.52344,-2.832031 -2.63672,-2.363281 -2.63672,-5.761719 0,-2.1875 1.23047,-4.082031 1.25,-1.914063 3.57422,-2.910156 2.34375,-0.996094 5.64453,-0.996094 5.39062,0 8.10547,2.363281 2.73437,2.363281 2.87109,6.308594 l -5.78125,0.253906 q -0.37109,-2.207031 -1.60156,-3.164062 -1.21094,-0.976563 -3.65234,-0.976563 -2.51954,0 -3.94532,1.035156 -0.91797,0.664063 -0.91797,1.777344 0,1.015625 0.85938,1.738281 1.09375,0.917969 5.3125,1.914063 4.21875,0.996094 6.23047,2.070312 2.03125,1.054688 3.16406,2.910157 1.15234,1.835937 1.15234,4.550781 0,2.460937 -1.36718,4.609375 -1.36719,2.148437 -3.86719,3.203125 -2.5,1.035156 -6.23047,1.035156 -5.42969,0 -8.33984,-2.5 -2.91016,-2.519531 -3.47657,-7.324219 z"
         style="font-style:normal;font-variant:normal;font-weight:normal;font-stretch:normal;font-family:Arial;-inkscape-font-specification:Arial;fill:#464646;fill-opacity:1"
         id="path827" />
      <path
         d="m 174.10156,45.50088 5.46875,0.917969 q -1.05469,3.007812 -3.33984,4.589844 -2.26563,1.5625 -5.6836,1.5625 -5.41015,0 -8.00781,-3.535157 -2.05078,-2.832031 -2.05078,-7.148437 0,-5.15625 2.69531,-8.066406 2.69532,-2.929688 6.81641,-2.929688 4.62891,0 7.30469,3.066406 2.67578,3.046875 2.55859,9.355469 h -13.75 q 0.0586,2.441406 1.32813,3.808594 1.26953,1.347656 3.16406,1.347656 1.28906,0 2.16797,-0.703125 0.8789,-0.703125 1.32812,-2.265625 z m 0.3125,-5.546875 q -0.0586,-2.382812 -1.23047,-3.613281 -1.17187,-1.25 -2.85156,-1.25 -1.79687,0 -2.96875,1.308594 -1.17187,1.308593 -1.15234,3.554687 z"
         style="font-style:normal;font-variant:normal;font-weight:normal;font-stretch:normal;font-family:Arial;-inkscape-font-specification:Arial;fill:#464646;fill-opacity:1"
         id="path829" />
      <path
         d="m 202.42187,37.493068 -5.41015,0.976562 q -0.27344,-1.621094 -1.25,-2.441406 -0.95703,-0.820313 -2.5,-0.820313 -2.05078,0 -3.28125,1.425782 -1.21094,1.40625 -1.21094,4.726562 0,3.691406 1.23047,5.214844 1.25,1.523437 3.33984,1.523437 1.5625,0 2.5586,-0.878906 0.99609,-0.898437 1.40625,-3.066406 l 5.39062,0.917969 q -0.83984,3.710937 -3.22265,5.605468 -2.38282,1.894532 -6.38672,1.894532 -4.55078,0 -7.26563,-2.871094 -2.69531,-2.871094 -2.69531,-7.949219 0,-5.136719 2.71484,-7.988281 2.71485,-2.871094 7.34375,-2.871094 3.78907,0 6.01563,1.640625 2.24609,1.621094 3.22265,4.960938 z"
         style="font-style:normal;font-variant:normal;font-weight:normal;font-stretch:normal;font-family:Arial;-inkscape-font-specification:Arial;fill:#464646;fill-opacity:1"
         id="path831" />
      <path
         d="m 220.23437,52.102443 v -3.105469 q -1.13281,1.660156 -2.98828,2.617187 -1.83593,0.957032 -3.88672,0.957032 -2.08984,0 -3.75,-0.917969 -1.66015,-0.917969 -2.40234,-2.578125 -0.74219,-1.660156 -0.74219,-4.589844 v -13.125 h 5.48828 v 9.53125 q 0,4.375 0.29297,5.371094 0.3125,0.976562 1.11328,1.5625 0.80079,0.566406 2.03125,0.566406 1.40625,0 2.51954,-0.761719 1.11328,-0.78125 1.52343,-1.914062 0.41016,-1.152344 0.41016,-5.605469 v -8.75 h 5.48828 v 20.742188 z"
         style="font-style:normal;font-variant:normal;font-weight:normal;font-stretch:normal;font-family:Arial;-inkscape-font-specification:Arial;fill:#464646;fill-opacity:1"
         id="path833" />
      <path
         d="m 236.26953,52.102443 h -5.48828 V 31.360255 h 5.09766 v 2.949219 q 1.30859,-2.089844 2.34375,-2.753906 1.05468,-0.664063 2.38281,-0.664063 1.875,0 3.61328,1.035156 l -1.69922,4.785157 q -1.38672,-0.898438 -2.57812,-0.898438 -1.15235,0 -1.95313,0.644531 -0.80078,0.625 -1.26953,2.285157 -0.44922,1.660156 -0.44922,6.953125 z"
         style="font-style:normal;font-variant:normal;font-weight:normal;font-stretch:normal;font-family:Arial;-inkscape-font-specification:Arial;fill:#464646;fill-opacity:1"
         id="path835" />
      <path
         d="M 246.58203,28.547755 V 23.46963 h 5.48828 v 5.078125 z m 0,23.554688 V 31.360255 h 5.48828 v 20.742188 z"
         style="font-style:normal;font-variant:normal;font-weight:normal;font-stretch:normal;font-family:Arial;-inkscape-font-specification:Arial;fill:#464646;fill-opacity:1"
         id="path837" />
      <path
         d="m 267.20703,31.360255 v 4.375 h -3.75 v 8.359375 q 0,2.539063 0.0977,2.96875 0.11718,0.410156 0.48828,0.683594 0.39062,0.273437 0.9375,0.273437 0.76172,0 2.20703,-0.527343 l 0.46875,4.257812 q -1.91406,0.820313 -4.33594,0.820313 -1.48437,0 -2.67578,-0.488282 -1.19141,-0.507812 -1.75781,-1.289062 -0.54688,-0.800781 -0.76172,-2.148438 -0.17578,-0.957031 -0.17578,-3.867187 v -9.042969 h -2.51953 v -4.375 h 2.51953 v -4.121094 l 5.50781,-3.203125 v 7.324219 z"
         style="font-style:normal;font-variant:normal;font-weight:normal;font-stretch:normal;font-family:Arial;-inkscape-font-specification:Arial;fill:#464646;fill-opacity:1"
         id="path839" />
      <path
         d="m 268.41797,31.360255 h 5.83984 l 4.96094,14.726563 4.84375,-14.726563 h 5.68359 l -7.32422,19.960938 -1.30859,3.613281 q -0.72266,1.816406 -1.38672,2.773437 -0.64453,0.957032 -1.5039,1.542969 -0.83985,0.605469 -2.08985,0.9375 -1.23047,0.332031 -2.79297,0.332031 -1.58203,0 -3.10547,-0.332031 l -0.48828,-4.296875 q 1.28907,0.253906 2.32422,0.253906 1.91406,0 2.83203,-1.132812 0.91797,-1.113281 1.40625,-2.851563 z"
         style="font-style:normal;font-variant:normal;font-weight:normal;font-stretch:normal;font-family:Arial;-inkscape-font-specification:Arial;fill:#464646;fill-opacity:1"
         id="path841" />
    </g>
    <g
       aria-label="Priority One Security"
       transform="scale(1.0022969,0.99770834)"
       style="font-style:normal;font-weight:normal;font-size:10.60764217px;line-height:1.25;font-family:sans-serif;letter-spacing:0px;word-spacing:0px;fill:#464646;fill-opacity:1;stroke:none;stroke-width:0.26519105"
       id="text841">
      <path
         d="m 20.371329,291.02048 h 1.214575 c 0.302318,0 0.54099,-0.0902 0.747839,-0.2758 0.233368,-0.21215 0.33414,-0.46143 0.33414,-0.81679 0,-0.72662 -0.429609,-1.13501 -1.193359,-1.13501 h -1.59645 v 3.86648 h 0.493255 z m 0,-0.43491 v -1.35778 h 1.028941 c 0.47204,0 0.753143,0.25458 0.753143,0.67889 0,0.42431 -0.281103,0.67889 -0.753143,0.67889 z"
         style="font-style:normal;font-variant:normal;font-weight:normal;font-stretch:normal;font-size:5.30382109px;font-family:Helvetica;-inkscape-font-specification:Helvetica;fill:#464646;fill-opacity:1;stroke-width:0.26519105"
         id="path844" />
      <path
         d="m 23.299037,289.88016 v 2.7792 h 0.445521 v -1.44264 c 0.0053,-0.66828 0.281103,-0.96529 0.891042,-0.94938 v -0.45083 c -0.07425,-0.0106 -0.116684,-0.0159 -0.169722,-0.0159 -0.286407,0 -0.503863,0.16973 -0.758447,0.58342 v -0.50386 z"
         style="font-style:normal;font-variant:normal;font-weight:normal;font-stretch:normal;font-size:5.30382109px;font-family:Helvetica;-inkscape-font-specification:Helvetica;fill:#464646;fill-opacity:1;stroke-width:0.26519105"
         id="path846" />
      <path
         d="m 25.500111,289.88016 h -0.440217 v 2.7792 h 0.440217 z m 0,-1.08728 H 25.05459 v 0.5569 h 0.445521 z"
         style="font-style:normal;font-variant:normal;font-weight:normal;font-stretch:normal;font-size:5.30382109px;font-family:Helvetica;-inkscape-font-specification:Helvetica;fill:#464646;fill-opacity:1;stroke-width:0.26519105"
         id="path848" />
      <path
         d="m 27.324616,289.8006 c -0.784966,0 -1.251702,0.5569 -1.251702,1.49038 0,0.93877 0.466736,1.49037 1.257006,1.49037 0.784965,0 1.257005,-0.5569 1.257005,-1.46916 0,-0.96529 -0.456128,-1.51159 -1.262309,-1.51159 z m 0.0053,0.4084 c 0.498559,0 0.795573,0.40839 0.795573,1.09789 0,0.65767 -0.307622,1.06607 -0.795573,1.06607 -0.493256,0 -0.795573,-0.4084 -0.795573,-1.08198 0,-0.67359 0.302317,-1.08198 0.795573,-1.08198 z"
         style="font-style:normal;font-variant:normal;font-weight:normal;font-stretch:normal;font-size:5.30382109px;font-family:Helvetica;-inkscape-font-specification:Helvetica;fill:#464646;fill-opacity:1;stroke-width:0.26519105"
         id="path850" />
      <path
         d="m 29.196864,289.88016 v 2.7792 h 0.445521 v -1.44264 c 0.0053,-0.66828 0.281102,-0.96529 0.891042,-0.94938 v -0.45083 c -0.07425,-0.0106 -0.116684,-0.0159 -0.169723,-0.0159 -0.286406,0 -0.503863,0.16973 -0.758446,0.58342 v -0.50386 z"
         style="font-style:normal;font-variant:normal;font-weight:normal;font-stretch:normal;font-size:5.30382109px;font-family:Helvetica;-inkscape-font-specification:Helvetica;fill:#464646;fill-opacity:1;stroke-width:0.26519105"
         id="path852" />
      <path
         d="M 31.397937,289.88016 H 30.95772 v 2.7792 h 0.440217 z m 0,-1.08728 h -0.445521 v 0.5569 h 0.445521 z"
         style="font-style:normal;font-variant:normal;font-weight:normal;font-stretch:normal;font-size:5.30382109px;font-family:Helvetica;-inkscape-font-specification:Helvetica;fill:#464646;fill-opacity:1;stroke-width:0.26519105"
         id="path854" />
      <path
         d="m 33.126973,289.88016 h -0.456129 v -0.76375 h -0.440217 v 0.76375 h -0.376571 v 0.36066 h 0.376571 v 2.10031 c 0,0.28641 0.190938,0.44022 0.535686,0.44022 0.116684,0 0.212153,-0.0106 0.36066,-0.0371 v -0.37126 c -0.06365,0.0159 -0.121988,0.0212 -0.212153,0.0212 -0.190938,0 -0.243976,-0.053 -0.243976,-0.24928 v -1.90407 h 0.456129 z"
         style="font-style:normal;font-variant:normal;font-weight:normal;font-stretch:normal;font-size:5.30382109px;font-family:Helvetica;-inkscape-font-specification:Helvetica;fill:#464646;fill-opacity:1;stroke-width:0.26519105"
         id="path856" />
      <path
         d="m 35.397002,289.88016 -0.769055,2.16396 -0.710712,-2.16396 h -0.47204 l 0.938777,2.78981 -0.169723,0.44022 c -0.07425,0.19624 -0.169722,0.27049 -0.355356,0.27049 -0.07425,0 -0.137899,-0.0106 -0.233368,-0.0318 v 0.39779 c 0.09016,0.0477 0.18033,0.069 0.297014,0.069 0.143203,0 0.297014,-0.0477 0.413698,-0.1326 0.1379,-0.10077 0.217457,-0.21746 0.302318,-0.44022 l 1.23579,-3.36262 z"
         style="font-style:normal;font-variant:normal;font-weight:normal;font-stretch:normal;font-size:5.30382109px;font-family:Helvetica;-inkscape-font-specification:Helvetica;fill:#464646;fill-opacity:1;stroke-width:0.26519105"
         id="path858" />
      <path
         d="m 39.528667,288.72923 c -1.108498,0 -1.861641,0.81679 -1.861641,2.02606 0,1.21458 0.747839,2.02606 1.866945,2.02606 0.47204,0 0.885738,-0.1432 1.198664,-0.40839 0.419001,-0.35536 0.668281,-0.95469 0.668281,-1.58585 0,-1.24639 -0.737231,-2.05788 -1.872249,-2.05788 z m 0,0.43491 c 0.838004,0 1.378994,0.63116 1.378994,1.61237 0,0.93347 -0.556902,1.56993 -1.37369,1.56993 -0.827396,0 -1.37369,-0.63646 -1.37369,-1.59115 0,-0.95469 0.546294,-1.59115 1.368386,-1.59115 z"
         style="font-style:normal;font-variant:normal;font-weight:normal;font-stretch:normal;font-size:5.30382109px;font-family:Helvetica;-inkscape-font-specification:Helvetica;fill:#464646;fill-opacity:1;stroke-width:0.26519105"
         id="path860" />
      <path
         d="m 41.963122,289.88016 v 2.7792 h 0.445521 v -1.5328 c 0,-0.56751 0.297014,-0.93878 0.753142,-0.93878 0.350052,0 0.572813,0.21216 0.572813,0.5463 v 1.92528 h 0.440217 v -2.10031 c 0,-0.46143 -0.344748,-0.75845 -0.880434,-0.75845 -0.413698,0 -0.678889,0.15912 -0.922865,0.5463 v -0.46674 z"
         style="font-style:normal;font-variant:normal;font-weight:normal;font-stretch:normal;font-size:5.30382109px;font-family:Helvetica;-inkscape-font-specification:Helvetica;fill:#464646;fill-opacity:1;stroke-width:0.26519105"
         id="path862" />
      <path
         d="m 47.261637,291.41827 c 0,-0.42431 -0.03182,-0.67889 -0.11138,-0.88574 -0.18033,-0.45613 -0.604635,-0.73193 -1.12441,-0.73193 -0.774358,0 -1.272917,0.58873 -1.272917,1.50629 0,0.91756 0.477344,1.47446 1.262309,1.47446 0.636459,0 1.076676,-0.36066 1.188056,-0.96529 h -0.445521 c -0.121987,0.36596 -0.371267,0.5569 -0.726623,0.5569 -0.281103,0 -0.519775,-0.1273 -0.668282,-0.36066 -0.106076,-0.15912 -0.143203,-0.31823 -0.148507,-0.59403 z m -2.036667,-0.36066 c 0.03713,-0.51447 0.350052,-0.84861 0.795573,-0.84861 0.450825,0 0.763751,0.35005 0.763751,0.84861 z"
         style="font-style:normal;font-variant:normal;font-weight:normal;font-stretch:normal;font-size:5.30382109px;font-family:Helvetica;-inkscape-font-specification:Helvetica;fill:#464646;fill-opacity:1;stroke-width:0.26519105"
         id="path864" />
      <path
         d="m 52.125238,289.92789 c 0,-0.26519 -0.01591,-0.33944 -0.100772,-0.51977 -0.212153,-0.44552 -0.662978,-0.67889 -1.315348,-0.67889 -0.848611,0 -1.37369,0.43491 -1.37369,1.13502 0,0.47204 0.24928,0.76905 0.758447,0.90165 l 0.959991,0.25458 c 0.493256,0.12729 0.710712,0.32354 0.710712,0.62585 0,0.20685 -0.11138,0.419 -0.275798,0.53569 -0.153811,0.11138 -0.397787,0.16442 -0.710712,0.16442 -0.424306,0 -0.705408,-0.10078 -0.891042,-0.32354 -0.143203,-0.16972 -0.206849,-0.35535 -0.201545,-0.59402 h -0.466737 c 0.0053,0.35535 0.07425,0.58872 0.228065,0.80087 0.265191,0.36597 0.710712,0.5516 1.299436,0.5516 0.461432,0 0.838004,-0.10608 1.087283,-0.29701 0.259887,-0.20685 0.424306,-0.5516 0.424306,-0.88574 0,-0.47735 -0.297014,-0.8274 -0.822092,-0.9706 l -0.9706,-0.25989 c -0.466736,-0.12729 -0.636458,-0.2758 -0.636458,-0.57281 0,-0.39248 0.344748,-0.65237 0.864523,-0.65237 0.615243,0 0.959991,0.2758 0.965295,0.78496 z"
         style="font-style:normal;font-variant:normal;font-weight:normal;font-stretch:normal;font-size:5.30382109px;font-family:Helvetica;-inkscape-font-specification:Helvetica;fill:#464646;fill-opacity:1;stroke-width:0.26519105"
         id="path866" />
      <path
         d="m 55.206755,291.41827 c 0,-0.42431 -0.03182,-0.67889 -0.11138,-0.88574 -0.18033,-0.45613 -0.604635,-0.73193 -1.12441,-0.73193 -0.774358,0 -1.272917,0.58873 -1.272917,1.50629 0,0.91756 0.477344,1.47446 1.262309,1.47446 0.636459,0 1.076676,-0.36066 1.188056,-0.96529 h -0.445521 c -0.121988,0.36596 -0.371267,0.5569 -0.726623,0.5569 -0.281103,0 -0.519775,-0.1273 -0.668282,-0.36066 -0.106076,-0.15912 -0.143203,-0.31823 -0.148507,-0.59403 z m -2.036667,-0.36066 c 0.03713,-0.51447 0.350052,-0.84861 0.795573,-0.84861 0.450825,0 0.76375,0.35005 0.76375,0.84861 z"
         style="font-style:normal;font-variant:normal;font-weight:normal;font-stretch:normal;font-size:5.30382109px;font-family:Helvetica;-inkscape-font-specification:Helvetica;fill:#464646;fill-opacity:1;stroke-width:0.26519105"
         id="path868" />
      <path
         d="m 57.93292,290.81363 c -0.02122,-0.27049 -0.07956,-0.44552 -0.185634,-0.59933 -0.190937,-0.25989 -0.525078,-0.4137 -0.912257,-0.4137 -0.753143,0 -1.23579,0.59403 -1.23579,1.5169 0,0.89634 0.477344,1.46385 1.230486,1.46385 0.662978,0 1.08198,-0.39779 1.135018,-1.07668 h -0.445521 c -0.07425,0.44553 -0.302318,0.66829 -0.678889,0.66829 -0.487952,0 -0.779662,-0.39779 -0.779662,-1.05546 0,-0.6948 0.286406,-1.1085 0.769054,-1.1085 0.371268,0 0.604636,0.21745 0.657674,0.60463 z"
         style="font-style:normal;font-variant:normal;font-weight:normal;font-stretch:normal;font-size:5.30382109px;font-family:Helvetica;-inkscape-font-specification:Helvetica;fill:#464646;fill-opacity:1;stroke-width:0.26519105"
         id="path870" />
      <path
         d="m 60.648462,292.65936 v -2.7792 h -0.440217 v 1.57524 c 0,0.5675 -0.297014,0.93877 -0.758447,0.93877 -0.350052,0 -0.572812,-0.21215 -0.572812,-0.54629 v -1.96772 h -0.440218 v 2.14274 c 0,0.46144 0.344749,0.75845 0.885739,0.75845 0.408394,0 0.668281,-0.1432 0.928168,-0.50917 v 0.38718 z"
         style="font-style:normal;font-variant:normal;font-weight:normal;font-stretch:normal;font-size:5.30382109px;font-family:Helvetica;-inkscape-font-specification:Helvetica;fill:#464646;fill-opacity:1;stroke-width:0.26519105"
         id="path872" />
      <path
         d="m 61.406909,289.88016 v 2.7792 h 0.445521 v -1.44264 c 0.0053,-0.66828 0.281102,-0.96529 0.891042,-0.94938 v -0.45083 c -0.07425,-0.0106 -0.116684,-0.0159 -0.169723,-0.0159 -0.286406,0 -0.503863,0.16973 -0.758446,0.58342 v -0.50386 z"
         style="font-style:normal;font-variant:normal;font-weight:normal;font-stretch:normal;font-size:5.30382109px;font-family:Helvetica;-inkscape-font-specification:Helvetica;fill:#464646;fill-opacity:1;stroke-width:0.26519105"
         id="path874" />
      <path
         d="m 63.60798,289.88016 h -0.440217 v 2.7792 h 0.440217 z m 0,-1.08728 h -0.445521 v 0.5569 h 0.445521 z"
         style="font-style:normal;font-variant:normal;font-weight:normal;font-stretch:normal;font-size:5.30382109px;font-family:Helvetica;-inkscape-font-specification:Helvetica;fill:#464646;fill-opacity:1;stroke-width:0.26519105"
         id="path876" />
      <path
         d="m 65.337018,289.88016 h -0.456129 v -0.76375 h -0.440217 v 0.76375 h -0.376571 v 0.36066 h 0.376571 v 2.10031 c 0,0.28641 0.190938,0.44022 0.535686,0.44022 0.116684,0 0.212153,-0.0106 0.36066,-0.0371 v -0.37126 c -0.06365,0.0159 -0.121988,0.0212 -0.212153,0.0212 -0.190938,0 -0.243976,-0.053 -0.243976,-0.24928 v -1.90407 h 0.456129 z"
         style="font-style:normal;font-variant:normal;font-weight:normal;font-stretch:normal;font-size:5.30382109px;font-family:Helvetica;-inkscape-font-specification:Helvetica;fill:#464646;fill-opacity:1;stroke-width:0.26519105"
         id="path878" />
      <path
         d="m 67.607048,289.88016 -0.769054,2.16396 -0.710712,-2.16396 h -0.47204 l 0.938776,2.78981 -0.169722,0.44022 c -0.07425,0.19624 -0.169722,0.27049 -0.355356,0.27049 -0.07425,0 -0.137899,-0.0106 -0.233368,-0.0318 v 0.39779 c 0.09016,0.0477 0.18033,0.069 0.297014,0.069 0.143203,0 0.297014,-0.0477 0.413698,-0.1326 0.137899,-0.10077 0.217457,-0.21746 0.302318,-0.44022 l 1.23579,-3.36262 z"
         style="font-style:normal;font-variant:normal;font-weight:normal;font-stretch:normal;font-size:5.30382109px;font-family:Helvetica;-inkscape-font-specification:Helvetica;fill:#464646;fill-opacity:1;stroke-width:0.26519105"
         id="path880" />
    </g>
    <path
       style="fill:none;stroke:#454545;stroke-width:0.565;stroke-linecap:butt;stroke-linejoin:miter;stroke-opacity:0.87843138;stroke-miterlimit:4;stroke-dasharray:none"
       d="M 19.840586,286.15053 H 72.725697"
       id="path843"
       inkscape:connector-curvature="0" />
  </g>
</svg>
