<svg xmlns="http://www.w3.org/2000/svg" xmlns:xlink="http://www.w3.org/1999/xlink" width="512" zoomAndPan="magnify" viewBox="0 0 384 383.999986" height="512" preserveAspectRatio="xMidYMid meet" version="1.0"><defs><clipPath id="fbec55dbc6"><path d="M 459.734375 214.828125 L 168.984375 459.886719 L -76.074219 169.132812 L 214.679688 -75.921875 Z M 459.734375 214.828125 " clip-rule="nonzero"/></clipPath><clipPath id="b91f7793e6"><path d="M 459.734375 214.828125 L 168.984375 459.886719 L -76.074219 169.132812 L 214.679688 -75.921875 Z M 459.734375 214.828125 " clip-rule="nonzero"/></clipPath><linearGradient x1="-78.027076" gradientTransform="matrix(1, 0.0000000235192, -0.0000000235192, 1, 0.000018153, -0.00000399865)" y1="250" x2="578.027044" gradientUnits="userSpaceOnUse" y2="250" id="4efd4606fc"><stop stop-opacity="1" stop-color="rgb(21.998596%, 71.398926%, 100%)" offset="0"/><stop stop-opacity="1" stop-color="rgb(21.998596%, 71.398926%, 100%)" offset="0.125"/><stop stop-opacity="1" stop-color="rgb(21.998596%, 71.398926%, 100%)" offset="0.1875"/><stop stop-opacity="1" stop-color="rgb(21.998596%, 71.398926%, 100%)" offset="0.195313"/><stop stop-opacity="1" stop-color="rgb(21.83075%, 71.076965%, 99.754333%)" offset="0.199219"/><stop stop-opacity="1" stop-color="rgb(21.664429%, 70.755005%, 99.508667%)" offset="0.203125"/><stop stop-opacity="1" stop-color="rgb(21.398926%, 70.243835%, 99.121094%)" offset="0.207031"/><stop stop-opacity="1" stop-color="rgb(21.134949%, 69.732666%, 98.733521%)" offset="0.210938"/><stop stop-opacity="1" stop-color="rgb(20.869446%, 69.221497%, 98.345947%)" offset="0.214844"/><stop stop-opacity="1" stop-color="rgb(20.605469%, 68.711853%, 97.958374%)" offset="0.21875"/><stop stop-opacity="1" stop-color="rgb(20.339966%, 68.200684%, 97.570801%)" offset="0.222656"/><stop stop-opacity="1" stop-color="rgb(20.074463%, 67.69104%, 97.183228%)" offset="0.226562"/><stop stop-opacity="1" stop-color="rgb(19.80896%, 67.179871%, 96.795654%)" offset="0.230469"/><stop stop-opacity="1" stop-color="rgb(19.544983%, 66.670227%, 96.408081%)" offset="0.234375"/><stop stop-opacity="1" stop-color="rgb(19.27948%, 66.159058%, 96.018982%)" offset="0.238281"/><stop stop-opacity="1" stop-color="rgb(19.015503%, 65.647888%, 95.631409%)" offset="0.242188"/><stop stop-opacity="1" stop-color="rgb(18.75%, 65.136719%, 95.243835%)" offset="0.246094"/><stop stop-opacity="1" stop-color="rgb(18.486023%, 64.627075%, 94.856262%)" offset="0.25"/><stop stop-opacity="1" stop-color="rgb(18.22052%, 64.115906%, 94.468689%)" offset="0.253906"/><stop stop-opacity="1" stop-color="rgb(17.955017%, 63.606262%, 94.081116%)" offset="0.257812"/><stop stop-opacity="1" stop-color="rgb(17.689514%, 63.095093%, 93.693542%)" offset="0.261719"/><stop stop-opacity="1" stop-color="rgb(17.425537%, 62.585449%, 93.305969%)" offset="0.265625"/><stop stop-opacity="1" stop-color="rgb(17.160034%, 62.07428%, 92.91687%)" offset="0.269531"/><stop stop-opacity="1" stop-color="rgb(16.896057%, 61.564636%, 92.529297%)" offset="0.273438"/><stop stop-opacity="1" stop-color="rgb(16.630554%, 61.053467%, 92.141724%)" offset="0.277344"/><stop stop-opacity="1" stop-color="rgb(16.366577%, 60.542297%, 91.75415%)" offset="0.28125"/><stop stop-opacity="1" stop-color="rgb(16.101074%, 60.031128%, 91.366577%)" offset="0.285156"/><stop stop-opacity="1" stop-color="rgb(15.835571%, 59.521484%, 90.979004%)" offset="0.289062"/><stop stop-opacity="1" stop-color="rgb(15.570068%, 59.010315%, 90.591431%)" offset="0.292969"/><stop stop-opacity="1" stop-color="rgb(15.306091%, 58.500671%, 90.203857%)" offset="0.296875"/><stop stop-opacity="1" stop-color="rgb(15.040588%, 57.989502%, 89.816284%)" offset="0.300781"/><stop stop-opacity="1" stop-color="rgb(14.776611%, 57.479858%, 89.428711%)" offset="0.304688"/><stop stop-opacity="1" stop-color="rgb(14.511108%, 56.968689%, 89.039612%)" offset="0.308594"/><stop stop-opacity="1" stop-color="rgb(14.247131%, 56.45752%, 88.652039%)" offset="0.3125"/><stop stop-opacity="1" stop-color="rgb(13.981628%, 55.94635%, 88.264465%)" offset="0.316406"/><stop stop-opacity="1" stop-color="rgb(13.717651%, 55.436707%, 87.876892%)" offset="0.320312"/><stop stop-opacity="1" stop-color="rgb(13.452148%, 54.925537%, 87.489319%)" offset="0.324219"/><stop stop-opacity="1" stop-color="rgb(13.186646%, 54.415894%, 87.101746%)" offset="0.328125"/><stop stop-opacity="1" stop-color="rgb(12.921143%, 53.904724%, 86.714172%)" offset="0.332031"/><stop stop-opacity="1" stop-color="rgb(12.657166%, 53.395081%, 86.326599%)" offset="0.335938"/><stop stop-opacity="1" stop-color="rgb(12.391663%, 52.883911%, 85.9375%)" offset="0.339844"/><stop stop-opacity="1" stop-color="rgb(12.127686%, 52.374268%, 85.549927%)" offset="0.34375"/><stop stop-opacity="1" stop-color="rgb(11.862183%, 51.863098%, 85.162354%)" offset="0.347656"/><stop stop-opacity="1" stop-color="rgb(11.598206%, 51.351929%, 84.77478%)" offset="0.351562"/><stop stop-opacity="1" stop-color="rgb(11.332703%, 50.840759%, 84.387207%)" offset="0.355469"/><stop stop-opacity="1" stop-color="rgb(11.0672%, 50.331116%, 83.999634%)" offset="0.359375"/><stop stop-opacity="1" stop-color="rgb(10.801697%, 49.819946%, 83.612061%)" offset="0.363281"/><stop stop-opacity="1" stop-color="rgb(10.53772%, 49.310303%, 83.224487%)" offset="0.367188"/><stop stop-opacity="1" stop-color="rgb(10.272217%, 48.799133%, 82.835388%)" offset="0.371094"/><stop stop-opacity="1" stop-color="rgb(10.00824%, 48.28949%, 82.447815%)" offset="0.375"/><stop stop-opacity="1" stop-color="rgb(9.742737%, 47.77832%, 82.060242%)" offset="0.378906"/><stop stop-opacity="1" stop-color="rgb(9.47876%, 47.267151%, 81.672668%)" offset="0.382812"/><stop stop-opacity="1" stop-color="rgb(9.213257%, 46.755981%, 81.285095%)" offset="0.386719"/><stop stop-opacity="1" stop-color="rgb(8.947754%, 46.246338%, 80.897522%)" offset="0.390625"/><stop stop-opacity="1" stop-color="rgb(8.682251%, 45.735168%, 80.509949%)" offset="0.394531"/><stop stop-opacity="1" stop-color="rgb(8.418274%, 45.225525%, 80.122375%)" offset="0.398438"/><stop stop-opacity="1" stop-color="rgb(8.152771%, 44.714355%, 79.734802%)" offset="0.402344"/><stop stop-opacity="1" stop-color="rgb(7.888794%, 44.204712%, 79.347229%)" offset="0.40625"/><stop stop-opacity="1" stop-color="rgb(7.623291%, 43.693542%, 78.95813%)" offset="0.410156"/><stop stop-opacity="1" stop-color="rgb(7.359314%, 43.183899%, 78.570557%)" offset="0.414062"/><stop stop-opacity="1" stop-color="rgb(7.093811%, 42.672729%, 78.182983%)" offset="0.417969"/><stop stop-opacity="1" stop-color="rgb(6.828308%, 42.16156%, 77.79541%)" offset="0.421875"/><stop stop-opacity="1" stop-color="rgb(6.562805%, 41.650391%, 77.407837%)" offset="0.425781"/><stop stop-opacity="1" stop-color="rgb(6.298828%, 41.140747%, 77.020264%)" offset="0.429688"/><stop stop-opacity="1" stop-color="rgb(6.033325%, 40.629578%, 76.63269%)" offset="0.433594"/><stop stop-opacity="1" stop-color="rgb(5.769348%, 40.119934%, 76.245117%)" offset="0.4375"/><stop stop-opacity="1" stop-color="rgb(5.503845%, 39.608765%, 75.856018%)" offset="0.441406"/><stop stop-opacity="1" stop-color="rgb(5.239868%, 39.099121%, 75.468445%)" offset="0.445312"/><stop stop-opacity="1" stop-color="rgb(4.974365%, 38.587952%, 75.080872%)" offset="0.449219"/><stop stop-opacity="1" stop-color="rgb(4.708862%, 38.076782%, 74.693298%)" offset="0.453125"/><stop stop-opacity="1" stop-color="rgb(4.443359%, 37.565613%, 74.305725%)" offset="0.457031"/><stop stop-opacity="1" stop-color="rgb(4.179382%, 37.055969%, 73.918152%)" offset="0.460938"/><stop stop-opacity="1" stop-color="rgb(3.913879%, 36.5448%, 73.530579%)" offset="0.464844"/><stop stop-opacity="1" stop-color="rgb(3.649902%, 36.035156%, 73.143005%)" offset="0.46875"/><stop stop-opacity="1" stop-color="rgb(3.384399%, 35.523987%, 72.753906%)" offset="0.472656"/><stop stop-opacity="1" stop-color="rgb(3.120422%, 35.014343%, 72.366333%)" offset="0.476562"/><stop stop-opacity="1" stop-color="rgb(2.854919%, 34.503174%, 71.97876%)" offset="0.480469"/><stop stop-opacity="1" stop-color="rgb(2.590942%, 33.99353%, 71.591187%)" offset="0.484375"/><stop stop-opacity="1" stop-color="rgb(2.325439%, 33.482361%, 71.203613%)" offset="0.488281"/><stop stop-opacity="1" stop-color="rgb(2.059937%, 32.971191%, 70.81604%)" offset="0.492188"/><stop stop-opacity="1" stop-color="rgb(1.794434%, 32.460022%, 70.428467%)" offset="0.496094"/><stop stop-opacity="1" stop-color="rgb(1.530457%, 31.950378%, 70.040894%)" offset="0.5"/><stop stop-opacity="1" stop-color="rgb(1.264954%, 31.439209%, 69.65332%)" offset="0.503906"/><stop stop-opacity="1" stop-color="rgb(1.000977%, 30.929565%, 69.265747%)" offset="0.507812"/><stop stop-opacity="1" stop-color="rgb(0.735474%, 30.418396%, 68.876648%)" offset="0.511719"/><stop stop-opacity="1" stop-color="rgb(0.471497%, 29.908752%, 68.489075%)" offset="0.515625"/><stop stop-opacity="1" stop-color="rgb(0.274658%, 29.472351%, 68.182373%)" offset="0.519531"/><stop stop-opacity="1" stop-color="rgb(0.0778198%, 29.03595%, 67.877197%)" offset="0.523438"/><stop stop-opacity="1" stop-color="rgb(0.43335%, 29.205322%, 68.232727%)" offset="0.527344"/><stop stop-opacity="1" stop-color="rgb(0.788879%, 29.374695%, 68.588257%)" offset="0.53125"/><stop stop-opacity="1" stop-color="rgb(1.144409%, 29.542542%, 68.943787%)" offset="0.535156"/><stop stop-opacity="1" stop-color="rgb(1.499939%, 29.711914%, 69.299316%)" offset="0.539062"/><stop stop-opacity="1" stop-color="rgb(1.855469%, 29.881287%, 69.654846%)" offset="0.542969"/><stop stop-opacity="1" stop-color="rgb(2.210999%, 30.050659%, 70.010376%)" offset="0.546875"/><stop stop-opacity="1" stop-color="rgb(2.566528%, 30.218506%, 70.365906%)" offset="0.550781"/><stop stop-opacity="1" stop-color="rgb(2.922058%, 30.387878%, 70.721436%)" offset="0.554688"/><stop stop-opacity="1" stop-color="rgb(3.277588%, 30.557251%, 71.076965%)" offset="0.558594"/><stop stop-opacity="1" stop-color="rgb(3.633118%, 30.726624%, 71.432495%)" offset="0.5625"/><stop stop-opacity="1" stop-color="rgb(3.988647%, 30.89447%, 71.788025%)" offset="0.566406"/><stop stop-opacity="1" stop-color="rgb(4.344177%, 31.063843%, 72.143555%)" offset="0.570312"/><stop stop-opacity="1" stop-color="rgb(4.699707%, 31.231689%, 72.499084%)" offset="0.574219"/><stop stop-opacity="1" stop-color="rgb(5.055237%, 31.401062%, 72.85614%)" offset="0.578125"/><stop stop-opacity="1" stop-color="rgb(5.410767%, 31.570435%, 73.21167%)" offset="0.582031"/><stop stop-opacity="1" stop-color="rgb(5.766296%, 31.739807%, 73.5672%)" offset="0.585938"/><stop stop-opacity="1" stop-color="rgb(6.121826%, 31.907654%, 73.922729%)" offset="0.589844"/><stop stop-opacity="1" stop-color="rgb(6.477356%, 32.077026%, 74.278259%)" offset="0.59375"/><stop stop-opacity="1" stop-color="rgb(6.832886%, 32.246399%, 74.633789%)" offset="0.597656"/><stop stop-opacity="1" stop-color="rgb(7.188416%, 32.415771%, 74.989319%)" offset="0.601563"/><stop stop-opacity="1" stop-color="rgb(7.543945%, 32.583618%, 75.344849%)" offset="0.605469"/><stop stop-opacity="1" stop-color="rgb(7.899475%, 32.752991%, 75.700378%)" offset="0.609375"/><stop stop-opacity="1" stop-color="rgb(8.255005%, 32.922363%, 76.055908%)" offset="0.613281"/><stop stop-opacity="1" stop-color="rgb(8.610535%, 33.091736%, 76.411438%)" offset="0.617188"/><stop stop-opacity="1" stop-color="rgb(8.966064%, 33.259583%, 76.766968%)" offset="0.621094"/><stop stop-opacity="1" stop-color="rgb(9.321594%, 33.428955%, 77.122498%)" offset="0.625"/><stop stop-opacity="1" stop-color="rgb(9.677124%, 33.598328%, 77.478027%)" offset="0.628906"/><stop stop-opacity="1" stop-color="rgb(10.03418%, 33.7677%, 77.833557%)" offset="0.632812"/><stop stop-opacity="1" stop-color="rgb(10.389709%, 33.935547%, 78.189087%)" offset="0.636719"/><stop stop-opacity="1" stop-color="rgb(10.745239%, 34.104919%, 78.544617%)" offset="0.640625"/><stop stop-opacity="1" stop-color="rgb(11.100769%, 34.272766%, 78.900146%)" offset="0.644531"/><stop stop-opacity="1" stop-color="rgb(11.456299%, 34.442139%, 79.255676%)" offset="0.648437"/><stop stop-opacity="1" stop-color="rgb(11.811829%, 34.611511%, 79.611206%)" offset="0.652344"/><stop stop-opacity="1" stop-color="rgb(12.167358%, 34.780884%, 79.966736%)" offset="0.65625"/><stop stop-opacity="1" stop-color="rgb(12.522888%, 34.94873%, 80.322266%)" offset="0.660156"/><stop stop-opacity="1" stop-color="rgb(12.878418%, 35.118103%, 80.677795%)" offset="0.664062"/><stop stop-opacity="1" stop-color="rgb(13.233948%, 35.287476%, 81.033325%)" offset="0.667969"/><stop stop-opacity="1" stop-color="rgb(13.589478%, 35.456848%, 81.388855%)" offset="0.671875"/><stop stop-opacity="1" stop-color="rgb(13.945007%, 35.624695%, 81.744385%)" offset="0.675781"/><stop stop-opacity="1" stop-color="rgb(14.300537%, 35.794067%, 82.099915%)" offset="0.679688"/><stop stop-opacity="1" stop-color="rgb(14.656067%, 35.96344%, 82.455444%)" offset="0.683594"/><stop stop-opacity="1" stop-color="rgb(15.011597%, 36.132812%, 82.810974%)" offset="0.6875"/><stop stop-opacity="1" stop-color="rgb(15.367126%, 36.300659%, 83.166504%)" offset="0.691406"/><stop stop-opacity="1" stop-color="rgb(15.722656%, 36.470032%, 83.522034%)" offset="0.695312"/><stop stop-opacity="1" stop-color="rgb(16.078186%, 36.639404%, 83.877563%)" offset="0.699219"/><stop stop-opacity="1" stop-color="rgb(16.433716%, 36.808777%, 84.233093%)" offset="0.703125"/><stop stop-opacity="1" stop-color="rgb(16.789246%, 36.976624%, 84.588623%)" offset="0.707031"/><stop stop-opacity="1" stop-color="rgb(17.144775%, 37.145996%, 84.944153%)" offset="0.710938"/><stop stop-opacity="1" stop-color="rgb(17.500305%, 37.315369%, 85.299683%)" offset="0.714844"/><stop stop-opacity="1" stop-color="rgb(17.855835%, 37.484741%, 85.656738%)" offset="0.71875"/><stop stop-opacity="1" stop-color="rgb(18.211365%, 37.652588%, 86.012268%)" offset="0.722656"/><stop stop-opacity="1" stop-color="rgb(18.566895%, 37.82196%, 86.367798%)" offset="0.726562"/><stop stop-opacity="1" stop-color="rgb(18.922424%, 37.989807%, 86.723328%)" offset="0.730469"/><stop stop-opacity="1" stop-color="rgb(19.277954%, 38.15918%, 87.078857%)" offset="0.734375"/><stop stop-opacity="1" stop-color="rgb(19.633484%, 38.328552%, 87.434387%)" offset="0.738281"/><stop stop-opacity="1" stop-color="rgb(19.989014%, 38.497925%, 87.789917%)" offset="0.742188"/><stop stop-opacity="1" stop-color="rgb(20.344543%, 38.665771%, 88.145447%)" offset="0.746094"/><stop stop-opacity="1" stop-color="rgb(20.700073%, 38.835144%, 88.500977%)" offset="0.75"/><stop stop-opacity="1" stop-color="rgb(21.055603%, 39.004517%, 88.856506%)" offset="0.753906"/><stop stop-opacity="1" stop-color="rgb(21.411133%, 39.173889%, 89.212036%)" offset="0.757812"/><stop stop-opacity="1" stop-color="rgb(21.766663%, 39.341736%, 89.567566%)" offset="0.761719"/><stop stop-opacity="1" stop-color="rgb(22.122192%, 39.511108%, 89.923096%)" offset="0.765625"/><stop stop-opacity="1" stop-color="rgb(22.477722%, 39.680481%, 90.278625%)" offset="0.769531"/><stop stop-opacity="1" stop-color="rgb(22.834778%, 39.849854%, 90.634155%)" offset="0.773438"/><stop stop-opacity="1" stop-color="rgb(23.190308%, 40.0177%, 90.989685%)" offset="0.777344"/><stop stop-opacity="1" stop-color="rgb(23.545837%, 40.187073%, 91.345215%)" offset="0.78125"/><stop stop-opacity="1" stop-color="rgb(23.901367%, 40.356445%, 91.700745%)" offset="0.785156"/><stop stop-opacity="1" stop-color="rgb(24.256897%, 40.525818%, 92.056274%)" offset="0.789062"/><stop stop-opacity="1" stop-color="rgb(24.612427%, 40.693665%, 92.411804%)" offset="0.792969"/><stop stop-opacity="1" stop-color="rgb(24.967957%, 40.863037%, 92.767334%)" offset="0.796875"/><stop stop-opacity="1" stop-color="rgb(25.323486%, 41.030884%, 93.122864%)" offset="0.800781"/><stop stop-opacity="1" stop-color="rgb(25.679016%, 41.200256%, 93.478394%)" offset="0.804688"/><stop stop-opacity="1" stop-color="rgb(26.034546%, 41.369629%, 93.833923%)" offset="0.808594"/><stop stop-opacity="1" stop-color="rgb(26.390076%, 41.539001%, 94.189453%)" offset="0.8125"/><stop stop-opacity="1" stop-color="rgb(26.745605%, 41.706848%, 94.544983%)" offset="0.816406"/><stop stop-opacity="1" stop-color="rgb(27.101135%, 41.876221%, 94.900513%)" offset="0.820312"/><stop stop-opacity="1" stop-color="rgb(27.456665%, 42.045593%, 95.256042%)" offset="0.824219"/><stop stop-opacity="1" stop-color="rgb(27.812195%, 42.214966%, 95.611572%)" offset="0.828125"/><stop stop-opacity="1" stop-color="rgb(28.167725%, 42.382812%, 95.967102%)" offset="0.832031"/><stop stop-opacity="1" stop-color="rgb(28.523254%, 42.552185%, 96.322632%)" offset="0.835938"/><stop stop-opacity="1" stop-color="rgb(28.878784%, 42.721558%, 96.678162%)" offset="0.839844"/><stop stop-opacity="1" stop-color="rgb(29.234314%, 42.89093%, 97.033691%)" offset="0.84375"/><stop stop-opacity="1" stop-color="rgb(29.589844%, 43.058777%, 97.389221%)" offset="0.847656"/><stop stop-opacity="1" stop-color="rgb(29.945374%, 43.228149%, 97.746277%)" offset="0.851563"/><stop stop-opacity="1" stop-color="rgb(30.300903%, 43.397522%, 98.101807%)" offset="0.855469"/><stop stop-opacity="1" stop-color="rgb(30.656433%, 43.566895%, 98.457336%)" offset="0.859375"/><stop stop-opacity="1" stop-color="rgb(31.011963%, 43.734741%, 98.812866%)" offset="0.863281"/><stop stop-opacity="1" stop-color="rgb(31.367493%, 43.904114%, 99.168396%)" offset="0.867188"/><stop stop-opacity="1" stop-color="rgb(31.723022%, 44.073486%, 99.523926%)" offset="0.871094"/><stop stop-opacity="1" stop-color="rgb(32.078552%, 44.242859%, 99.879456%)" offset="0.875"/><stop stop-opacity="1" stop-color="rgb(32.138062%, 44.270325%, 99.938965%)" offset="1"/></linearGradient></defs><g clip-path="url(#fbec55dbc6)"><g clip-path="url(#b91f7793e6)"><path stroke-linecap="butt" transform="matrix(-0.588806, 0.496268, -0.496268, -0.588806, 463.099579, 215.116361)" fill="none" stroke-linejoin="miter" d="M 436.89072 249.999124 C 436.89247 253.058961 436.814984 256.118355 436.664798 259.16955 C 436.515222 262.227892 436.289068 265.274765 435.990825 268.320586 C 435.688703 271.363138 435.313882 274.39749 434.866362 277.423642 C 434.418842 280.449794 433.898013 283.460598 433.300607 286.459933 C 432.7032 289.459268 432.032485 292.443254 431.288462 295.411893 C 430.547707 298.376653 429.729766 301.322796 428.841784 304.249712 C 427.953803 307.176628 426.995783 310.084317 425.963235 312.962363 C 424.934565 315.843677 423.834637 318.691469 422.664669 321.520034 C 421.490823 324.34533 420.256745 327.139763 418.948139 329.904551 C 417.639533 332.66934 416.263548 335.403875 414.822842 338.09713 C 413.382746 340.797533 411.870781 343.457265 410.301854 346.082255 C 408.729048 348.703976 407.095401 351.287686 405.389886 353.830725 C 403.691518 356.373155 401.935579 358.873695 400.11104 361.329685 C 398.29038 363.788944 396.40766 366.195897 394.467367 368.560959 C 392.527074 370.926021 390.5286 373.242046 388.475213 375.505154 C 386.422435 377.77541 384.314136 379.985601 382.151533 382.150023 C 379.98893 384.314446 377.774684 386.422073 375.505525 388.476783 C 373.243514 390.530884 370.925981 392.52492 368.560684 394.46543 C 366.199265 396.409209 363.785593 398.289044 361.327425 400.111475 C 358.876406 401.933296 356.373134 403.691173 353.829245 405.394915 C 351.288625 407.094778 348.7029 408.730088 346.079218 410.300235 C 343.459415 411.873651 340.797776 413.378636 338.102058 414.821727 C 335.402462 416.261549 332.668788 417.639477 329.907574 418.947755 C 327.142481 420.252763 324.346578 421.491999 321.519867 422.665463 C 318.696425 423.835048 315.838295 424.935592 312.959773 425.965875 C 310.081252 426.996158 307.178459 427.952911 304.252005 428.843282 C 301.321673 429.730385 298.378097 430.546617 295.41025 431.289319 C 292.442403 432.032021 289.461312 432.703853 286.459219 433.298276 C 283.461006 433.895969 280.445669 434.419522 277.420358 434.868326 C 274.395047 435.317131 271.359761 435.691186 268.321648 435.989882 C 265.276388 436.289189 262.225031 436.517015 259.170238 436.662335 C 256.116055 436.814803 253.059045 436.891912 250.002477 436.889784 C 246.94264 436.891535 243.883246 436.814048 240.832051 436.663862 C 237.773709 436.514286 234.726836 436.288132 231.681015 435.989889 C 228.638463 435.687767 225.600842 435.316825 222.577959 434.865426 C 219.551807 434.417906 216.541003 433.897077 213.541668 433.299671 C 210.542333 432.702265 207.558347 432.03155 204.589708 431.287526 C 201.624948 430.546772 198.675536 429.732709 195.74862 428.844728 C 192.821704 427.956747 189.917284 426.994847 187.035969 425.966178 C 184.157924 424.93363 181.302984 423.834311 178.481567 422.663734 C 175.653002 421.493766 172.85796 420.25254 170.093171 418.943935 C 167.332261 417.638598 164.597726 416.262612 161.897323 414.822516 C 159.204068 413.38181 156.541067 411.873725 153.919346 410.300919 C 151.297625 408.728113 148.713915 407.094466 146.167606 405.392829 C 143.625177 403.694462 141.127906 401.934643 138.671916 400.110105 C 136.212657 398.289445 133.802435 396.410603 131.437373 394.47031 C 129.07558 392.526139 126.756286 390.531543 124.493178 388.478156 C 122.226191 386.4215 120.008852 384.31381 117.851578 382.150597 C 115.687155 379.987995 113.579528 377.773748 111.521549 375.508468 C 109.470717 373.242579 107.469533 370.925655 105.532902 368.563627 C 103.592392 366.198329 101.709287 363.788536 99.886857 361.330369 C 98.064426 358.872201 96.307158 356.376077 94.606686 353.828309 C 92.906823 351.287689 91.271513 348.701964 89.698097 346.082161 C 88.12795 343.458479 86.619086 340.793571 85.175995 338.097854 C 83.732904 335.402136 82.358854 332.671731 81.053846 329.906638 C 79.744959 327.138276 78.509602 324.345643 77.336138 321.518932 C 76.166553 318.69549 75.06274 315.841239 74.035726 312.958838 C 73.005443 310.080316 72.045421 307.181402 71.158319 304.25107 C 70.267947 301.324616 69.454984 298.377161 68.712282 295.409314 C 67.966311 292.445346 67.297748 289.460376 66.700055 286.462163 C 66.105632 283.46007 65.57881 280.448612 65.130005 277.423301 C 64.68447 274.394111 64.307146 271.362704 64.00784 268.317444 C 63.712412 265.275452 63.484586 262.224096 63.332118 259.169912 C 63.186798 256.115119 63.109689 253.058109 63.111817 250.001542 C 63.110066 246.941705 63.184284 243.886189 63.33386 240.827847 C 63.484046 237.776652 63.70959 234.722631 64.011712 231.680079 C 64.306686 228.638137 64.681507 225.603785 65.132906 222.580902 C 65.583695 219.550871 66.104524 216.540067 66.70193 213.540733 C 67.299336 210.541398 67.970051 207.557411 68.710806 204.592651 C 69.454829 201.624012 70.268892 198.6746 71.156873 195.747684 C 72.044854 192.820768 73.003485 189.920227 74.032154 187.038912 C 75.064702 184.160867 76.164021 181.305927 77.337867 178.480631 C 78.504565 175.655945 79.745791 172.860903 81.054397 170.096114 C 82.359124 167.328056 83.73572 164.600669 85.175816 161.900266 C 86.619791 159.203133 88.124607 156.54401 89.700682 153.91841 C 91.273488 151.296689 92.907135 148.712979 94.605503 146.17055 C 96.307139 143.624241 98.066958 141.126971 99.887618 138.667711 C 101.712156 136.211721 103.590998 133.8015 105.531291 131.436437 C 107.471583 129.071375 109.466789 126.759229 111.523445 124.492242 C 113.580101 122.225256 115.684522 120.011795 117.847125 117.847373 C 120.013606 115.68622 122.227853 113.578593 124.489863 111.524492 C 126.759022 109.469782 129.072676 107.472476 131.437974 105.531966 C 133.803272 103.591457 136.213065 101.708352 138.667963 99.8898 C 141.12613 98.06737 143.625524 96.306223 146.170023 94.609629 C 148.713912 92.905888 151.296367 91.274457 153.91944 89.697161 C 156.543122 88.127014 159.200882 86.61876 161.900478 85.178939 C 164.596195 83.735847 167.326601 82.361798 170.094963 81.052911 C 172.860056 79.747902 175.655958 78.508666 178.482669 77.335202 C 181.306111 76.165617 184.157093 75.065683 187.035615 74.0354 C 189.921285 73.004508 192.820199 72.044485 195.750531 71.157383 C 198.673715 70.270891 201.62444 69.454049 204.592287 68.711347 C 207.556255 67.965375 210.541225 67.296813 213.539438 66.69912 C 216.541531 66.104697 219.549719 65.581753 222.575031 65.132949 C 225.600342 64.684144 228.635628 64.310089 231.680888 64.010783 C 234.726149 63.711477 237.774236 63.487529 240.828419 63.335061 C 243.886482 63.185863 246.943492 63.108753 250.000059 63.110881 C 253.059896 63.109131 256.115412 63.183348 259.170485 63.336803 C 262.224949 63.48311 265.275701 63.712533 268.317643 64.007507 C 271.360195 64.309629 274.394547 64.68445 277.420699 65.13197 C 280.446851 65.57949 283.461534 66.103588 286.460868 66.700994 C 289.460203 67.298401 292.44419 67.969116 295.40895 68.70987 C 298.377589 69.453894 301.323732 70.271835 304.250648 71.159817 C 307.177564 72.047798 310.081374 73.002549 312.959419 74.035097 C 315.840734 75.063767 318.692405 76.166964 321.52097 77.336932 C 324.345656 78.50363 327.140698 79.744856 329.905487 81.053462 C 332.670276 82.362068 335.400932 83.734784 338.098066 85.178759 C 340.798468 86.618855 343.454322 88.127551 346.083191 89.699747 C 348.704912 91.272553 351.288622 92.9062 353.831051 94.604567 C 356.373481 96.302935 358.87463 98.066022 361.33062 99.890561 C 363.786001 101.707952 366.196832 103.593941 368.561895 105.534234 C 370.926957 107.474527 373.239103 109.469732 375.509359 111.522509 C 377.772466 113.575896 379.986536 115.687465 382.150959 117.850068 C 384.315381 120.012671 386.423008 122.226917 388.47384 124.492807 C 390.531819 126.758087 392.525856 129.07562 394.469635 131.437039 C 396.410144 133.802336 398.28998 136.216008 400.111801 138.667028 C 401.934231 141.125195 403.695378 143.624589 405.391972 146.169087 C 407.091835 148.709707 408.727144 151.295432 410.30117 153.922383 C 411.874587 156.542186 413.379571 159.203825 414.822662 161.899543 C 416.262484 164.599139 417.636534 167.329544 418.94869 170.094027 C 420.253699 172.85912 421.492935 175.655023 422.66252 178.478465 C 423.835984 181.305176 424.932648 184.160037 425.962931 187.038558 C 426.997093 189.920349 427.953846 192.823142 428.844218 195.749596 C 429.73071 198.67278 430.547552 201.623504 431.290254 204.591351 C 432.032956 207.559198 432.704788 210.540289 433.299212 213.542382 C 433.896904 216.540595 434.416579 219.552663 434.865383 222.577974 C 435.314187 225.603285 435.688243 228.638571 435.990818 231.679953 C 436.290124 234.725213 436.514072 237.773301 436.663271 240.831363 C 436.815738 243.885546 436.888969 246.939287 436.89072 249.999124 Z M 436.89072 249.999124 " stroke="url(#4efd4606fc)" stroke-width="120" stroke-miterlimit="10"/></g></g></svg>