<svg xmlns="http://www.w3.org/2000/svg" viewBox="0 0 49.704 14.173"><defs><style>.cls-1{fill:#006ac6;}.cls-2{fill:#97999b;}</style></defs><g id="Layer_2" data-name="Layer 2"><g id="Layer_1-2" data-name="Layer 1"><path class="cls-1" d="M6.317,4.46a1.432,1.432,0,0,1,.109.514c.009.23.024.924.028,1.126.231-.013.53-.028.73-.028s.862-.012,1.831-.034l.063,0a.874.874,0,0,0,.917-.83c.068-.641-.283-.8-.3-.8a3.556,3.556,0,0,0-1.433-.254c-.077,0-.155,0-.235.007a9.172,9.172,0,0,0-1.711.3"/><path class="cls-1" d="M5.226,3.721a1.4,1.4,0,0,1,.389.1,1.51,1.51,0,0,1,.481.29,8.937,8.937,0,0,1,1.836-.353c.119-.009.242-.013.365-.013a4.561,4.561,0,0,1,1.292.176,1.973,1.973,0,0,0,.2-.182.951.951,0,0,0,.242-.479,1.032,1.032,0,0,0-.1-.744C9.819,2.3,9.53,2.2,9.072,2.2c-.062,0-.131,0-.206-.006s-.192-.008-.3-.008A4.479,4.479,0,0,0,7,2.473,5.29,5.29,0,0,0,5.226,3.721"/><path class="cls-1" d="M3.049,3.691a1.627,1.627,0,0,1,.622.114,1.573,1.573,0,0,1,.453.35,1.222,1.222,0,0,1,.152-.175,1.074,1.074,0,0,1,.354-.2c.155-.174.451-.494.752-.767A5.165,5.165,0,0,1,7.3,1.929a4.56,4.56,0,0,1,1.375-.181,6.689,6.689,0,0,1,.7.036A1.176,1.176,0,0,0,9.888.93c-.01-.7-.267-.866-1.446-.924a5.7,5.7,0,0,0-3.764,1.35A6.211,6.211,0,0,0,3.049,3.691"/><path class="cls-1" d="M8.059,6.456c.011.2.027.52.027.729,0,.28.022,1.271.032,1.694l0,.2A.878.878,0,0,0,8.953,10c.051.005.1.008.155.008.517,0,.645-.3.647-.306A3.778,3.778,0,0,0,10,8.029a9.148,9.148,0,0,0-.3-1.71,1.46,1.46,0,0,1-.515.109c-.093,0-.365.012-1.124.028"/><path class="cls-1" d="M10.239,9.591a1.774,1.774,0,0,0,.182.2.95.95,0,0,0,.478.243,1.187,1.187,0,0,0,.249.028,1.045,1.045,0,0,0,.5-.131c.212-.112.32-.4.32-.859,0-.056,0-.117,0-.185V8.866A4.493,4.493,0,0,0,11.686,7a5.3,5.3,0,0,0-1.248-1.772,1.44,1.44,0,0,1-.1.389,1.462,1.462,0,0,1-.29.481A8.906,8.906,0,0,1,10.4,7.932a4.808,4.808,0,0,1-.162,1.659"/><path class="cls-1" d="M12.375,9.384a1.153,1.153,0,0,0,.842.5c.711-.01.878-.267.936-1.446A5.726,5.726,0,0,0,12.8,4.679,6.217,6.217,0,0,0,10.468,3.05a1.626,1.626,0,0,1-.115.623,1.561,1.561,0,0,1-.35.452,1.3,1.3,0,0,1,.175.153,1.079,1.079,0,0,1,.2.353c.141.127.48.437.767.752A5.165,5.165,0,0,1,12.23,7.3a5.772,5.772,0,0,1,.145,2.08"/><path class="cls-1" d="M7.713,8.074c-.174.01-.512.028-.729.028s-.809.011-1.8.033l-.1,0a.876.876,0,0,0-.917.831c-.068.638.283.8.3.8a3.758,3.758,0,0,0,1.67.248,9.357,9.357,0,0,0,1.711-.3A1.422,1.422,0,0,1,7.742,9.2c-.006-.15-.016-.527-.028-1.12Z"/><path class="cls-1" d="M4.578,10.254a1.768,1.768,0,0,0-.2.182.954.954,0,0,0-.243.478,1.034,1.034,0,0,0,.1.744c.111.212.4.319.857.319.06,0,.126,0,.2,0,.1,0,.2.009.312.009A4.479,4.479,0,0,0,7.17,11.7a5.3,5.3,0,0,0,1.771-1.247,1.419,1.419,0,0,1-.389-.1,1.509,1.509,0,0,1-.481-.29,8.887,8.887,0,0,1-1.835.352c-.119.009-.243.014-.365.014a4.65,4.65,0,0,1-1.293-.176"/><path class="cls-1" d="M4.785,12.39a1.174,1.174,0,0,0-.5.854c.01.7.267.866,1.446.924.068,0,.137.005.207.005a5.816,5.816,0,0,0,3.556-1.355,6.2,6.2,0,0,0,1.63-2.335,1.617,1.617,0,0,1-.623-.115,1.574,1.574,0,0,1-.452-.35,1.355,1.355,0,0,1-.152.175,1.1,1.1,0,0,1-.354.205c-.1.114-.422.467-.752.767a5.161,5.161,0,0,1-1.921,1.08,4.567,4.567,0,0,1-1.376.181c-.334,0-.606-.026-.7-.036"/><path class="cls-1" d="M5.05,4.179c-.512,0-.642.295-.647.308a3.758,3.758,0,0,0-.248,1.667,9.1,9.1,0,0,0,.3,1.711,1.447,1.447,0,0,1,.515-.108c.109,0,.393-.013,1.124-.028-.009-.163-.027-.51-.027-.73S6.06,6.16,6.038,5.168V5.1a.877.877,0,0,0-.832-.916,1.33,1.33,0,0,0-.155-.009"/><path class="cls-1" d="M3.01,4.121a1.045,1.045,0,0,0-.495.131c-.212.113-.319.4-.319.859,0,.062,0,.131-.006.207a4.486,4.486,0,0,0,.283,1.866A5.331,5.331,0,0,0,3.72,8.957a1.43,1.43,0,0,1,.1-.389,1.505,1.505,0,0,1,.29-.482,8.84,8.84,0,0,1-.353-1.834A4.792,4.792,0,0,1,3.92,4.594a1.985,1.985,0,0,0-.182-.2.95.95,0,0,0-.478-.243,1.2,1.2,0,0,0-.25-.028"/><path class="cls-1" d="M.929,4.3c-.7.01-.865.267-.924,1.446A5.73,5.73,0,0,0,1.356,9.505,6.217,6.217,0,0,0,3.69,11.134a1.633,1.633,0,0,1,.115-.622,1.6,1.6,0,0,1,.35-.453,1.294,1.294,0,0,1-.175-.153,1.089,1.089,0,0,1-.2-.353c-.142-.126-.481-.437-.768-.752A5.193,5.193,0,0,1,1.928,6.88,5.765,5.765,0,0,1,1.784,4.8a1.152,1.152,0,0,0-.842-.5Z"/><path class="cls-1" d="M24.267,2.149a3.146,3.146,0,0,1,1.19.214,2.744,2.744,0,0,1,.908.584,2.537,2.537,0,0,1,.578.86,2.761,2.761,0,0,1,.2,1.053,2.951,2.951,0,0,1-.365,1.5,2.287,2.287,0,0,1-1.19.964V7.35a1.675,1.675,0,0,1,.66.337,1.876,1.876,0,0,1,.427.537,2.51,2.51,0,0,1,.241.681,6.086,6.086,0,0,1,.1.743c.009.156.018.339.027.55s.025.427.049.647a4.272,4.272,0,0,0,.109.626,1.459,1.459,0,0,0,.228.5H25.271a3.831,3.831,0,0,1-.22-1.115c-.027-.43-.069-.844-.124-1.238a1.954,1.954,0,0,0-.467-1.128,1.612,1.612,0,0,0-1.17-.358H21.13v3.839H18.97V2.149ZM23.5,6.593a1.634,1.634,0,0,0,1.114-.33,1.369,1.369,0,0,0,.371-1.073,1.309,1.309,0,0,0-.371-1.039A1.661,1.661,0,0,0,23.5,3.828H21.13V6.593Z"/><path class="cls-1" d="M33.56,2.149l3.673,9.824H34.991l-.744-2.188H30.574l-.77,2.188H27.63l3.714-9.824Zm.123,6.027L32.445,4.571h-.027l-1.28,3.605Z"/><polygon class="cls-1" points="39.859 2.149 39.859 6.222 43.698 2.149 46.395 2.149 42.556 6.029 46.766 11.973 44.056 11.973 41.097 7.557 39.859 8.809 39.859 11.973 37.699 11.973 37.699 2.149 39.859 2.149"/><path class="cls-2" d="M49.7,3.434a1.32,1.32,0,1,1-1.316-1.285A1.291,1.291,0,0,1,49.7,3.434m-2.311,0a1,1,0,0,0,1,1.027.984.984,0,0,0,.979-1.019.992.992,0,1,0-1.982-.008m.791.674h-.3V2.823a2.641,2.641,0,0,1,.493-.039.8.8,0,0,1,.447.094.358.358,0,0,1,.125.282.33.33,0,0,1-.266.3v.015a.382.382,0,0,1,.235.314.957.957,0,0,0,.094.321h-.322a1.1,1.1,0,0,1-.1-.313c-.024-.141-.1-.2-.267-.2h-.141Zm.008-.728h.141c.164,0,.3-.055.3-.189,0-.117-.086-.2-.275-.2a.753.753,0,0,0-.164.016Z"/></g></g></svg>