<svg viewBox="0 0 139 32" fill="none" xmlns="http://www.w3.org/2000/svg">
<path d="M34.2633 10.2656H36.0627C36.3338 10.2656 36.5803 10.4409 36.6543 10.6913L39.8094 19.3047L42.9646 10.6913C43.0632 10.4409 43.3097 10.2656 43.5562 10.2656H45.2817C45.6761 10.2656 45.9472 10.6663 45.7993 11.0418L41.1652 22.7852C41.0666 23.0356 40.8201 23.1858 40.5736 23.1858H38.996C38.7249 23.1858 38.503 23.0356 38.4044 22.7852L33.7703 11.0418C33.5977 10.6663 33.8689 10.2656 34.2633 10.2656Z" fill="#C63C49"/>
<path d="M46.243 16.7012V16.6761C46.243 13.0204 49.0778 10.0408 52.9724 10.0408C56.8671 10.0408 59.6772 12.9954 59.6772 16.6261V16.6511C59.6772 20.3068 56.8424 23.2865 52.9478 23.2865C49.0285 23.3115 46.243 20.3569 46.243 16.7012ZM56.7685 16.7012V16.6761C56.7685 14.4727 55.1909 12.6448 52.9478 12.6448C50.7046 12.6448 49.1517 14.4477 49.1517 16.6511V16.6761C49.1517 18.8796 50.7293 20.7074 52.9724 20.7074C55.2155 20.7074 56.7685 18.9046 56.7685 16.7012Z" fill="#C63C49"/>
<path d="M62.4624 10.2661H63.9661C64.3112 10.2661 64.607 10.5666 64.607 10.9171V22.4602C64.607 22.8107 64.3112 23.1112 63.9661 23.1112H62.4624C62.1173 23.1112 61.8215 22.8107 61.8215 22.4602V10.8921C61.8215 10.5415 62.0927 10.2661 62.4624 10.2661Z" fill="#C63C49"/>
<path d="M66.7267 16.7012V16.6761C66.7267 13.0204 69.4382 10.0408 73.3082 10.0408C75.4034 10.0408 76.7345 10.6667 77.8437 11.5932C78.0902 11.8185 78.1395 12.1941 77.9177 12.4696L76.907 13.6464C76.7098 13.8968 76.3401 13.9218 76.0936 13.7215C75.2555 13.0455 74.3681 12.6448 73.2835 12.6448C71.1636 12.6448 69.6107 14.4477 69.6107 16.6511V16.8514C69.6107 18.9547 71.2622 20.7325 73.3328 20.7074C74.5407 20.6824 75.3541 20.2567 76.1922 19.5556C76.4387 19.3553 76.7838 19.3804 76.981 19.6057L77.9423 20.5822C78.1888 20.8326 78.1642 21.2333 77.9177 21.4586C76.7345 22.6104 75.3541 23.3115 73.1849 23.3115C69.4875 23.3115 66.7267 20.3819 66.7267 16.7012Z" fill="#C63C49"/>
<path d="M80.7771 10.2661H89.0841C89.4292 10.2661 89.7003 10.5415 89.7003 10.8921V12.1691C89.7003 12.5196 89.4292 12.7951 89.0841 12.7951H82.9216V15.3741H88.2706C88.6157 15.3741 88.8869 15.6495 88.8869 16.0001V17.2771C88.8869 17.6276 88.6157 17.903 88.2706 17.903H82.9216V20.6073H89.158C89.5031 20.6073 89.7743 20.8827 89.7743 21.2333V22.5102C89.7743 22.8608 89.5031 23.1362 89.158 23.1362H80.7525C80.4074 23.1362 80.1362 22.8608 80.1362 22.5102V10.8671C80.1609 10.5415 80.432 10.2661 80.7771 10.2661Z" fill="#C63C49"/>
<path d="M92.4119 10.2661H94.0634C94.2606 10.2661 94.4331 10.3663 94.5317 10.5165L100.275 18.1785V10.8671C100.275 10.5165 100.546 10.2661 100.867 10.2661H102.395C102.74 10.2661 102.987 10.5415 102.987 10.8671V22.4602C102.987 22.8107 102.715 23.0611 102.395 23.0611H100.965C100.768 23.0611 100.596 22.9609 100.497 22.8107L94.5564 14.8983V22.4351C94.5564 22.7857 94.2852 23.0361 93.9648 23.0361H92.4365C92.0914 23.0361 91.8449 22.7606 91.8449 22.4351V10.8671C91.7956 10.5415 92.0668 10.2661 92.4119 10.2661Z" fill="#C63C49"/>
<path d="M108.533 12.8451H105.205C104.909 12.8451 104.688 12.5948 104.688 12.3193V10.7919C104.688 10.4915 104.934 10.2661 105.205 10.2661H114.621C114.917 10.2661 115.139 10.5165 115.139 10.7919V12.3193C115.139 12.6198 114.892 12.8451 114.621 12.8451H111.318V22.5353C111.318 22.8357 111.072 23.0611 110.801 23.0611H109.075C108.779 23.0611 108.558 22.8107 108.558 22.5353V12.8451H108.533Z" fill="#C63C49"/>
<path d="M117.407 10.2661H125.812C126.133 10.2661 126.379 10.5165 126.379 10.842V12.2192C126.379 12.5447 126.133 12.7951 125.812 12.7951H119.601V15.3741H124.999C125.319 15.3741 125.566 15.6245 125.566 15.95V17.3271C125.566 17.6527 125.319 17.903 124.999 17.903H119.601V20.6073H125.886C126.207 20.6073 126.453 20.8577 126.453 21.1832V22.5603C126.453 22.8858 126.207 23.1362 125.886 23.1362H117.407C117.086 23.1362 116.84 22.8858 116.84 22.5603V10.817C116.84 10.5165 117.086 10.2661 117.407 10.2661Z" fill="#C63C49"/>
<path d="M128.475 10.7919C128.475 10.4915 128.696 10.2661 128.992 10.2661H134.243C135.845 10.2661 137.102 10.7168 137.915 11.5681C138.63 12.2943 139 13.2958 139 14.4977V14.5228C139 16.601 137.891 17.903 136.289 18.504L138.827 22.2599C139.074 22.6104 138.827 23.0861 138.408 23.0861H136.436C136.264 23.0861 136.091 22.986 135.993 22.8608L133.429 18.9797H131.235V22.5603C131.235 22.8608 131.014 23.0861 130.718 23.0861H128.968C128.672 23.0861 128.45 22.8608 128.45 22.5603V10.7919H128.475ZM134.07 16.4758C135.426 16.4758 136.19 15.7497 136.19 14.673V14.6229C136.19 13.421 135.352 12.7951 133.996 12.7951H131.235V16.4758H134.07Z" fill="#C63C49"/>
<path d="M21.8892 21.684V21.8092C21.9138 22.0596 22.0371 22.2599 22.2343 22.4102L23.1216 23.0862C23.516 23.3867 24.083 23.3116 24.3788 22.9109C25.8578 20.8828 26.6466 18.5041 26.6466 16.0252C26.6466 13.5463 25.8824 11.1175 24.4034 9.11439C24.1076 8.71376 23.5407 8.63865 23.1463 8.93912L22.2589 9.61517C22.0617 9.76541 21.9385 9.96572 21.9138 10.2161V10.3413C21.9138 10.5416 21.9878 10.7169 22.0864 10.8922C23.1956 12.3945 23.7872 14.1723 23.7872 16.0252C23.7872 17.8781 23.1956 19.6559 22.0864 21.1582C21.9631 21.2834 21.8892 21.4837 21.8892 21.684Z" fill="#C63C49"/>
<path d="M18.1914 18.9546V19.0797C18.2161 19.3051 18.364 19.5304 18.5365 19.6807L19.2513 20.2065C19.6457 20.507 20.2127 20.4319 20.5085 20.0312C22.1847 17.7527 22.1847 14.2472 20.5085 11.9686C20.2127 11.568 19.6457 11.4929 19.2513 11.7934L18.5365 12.3192C18.3393 12.4694 18.2161 12.6697 18.1914 12.9201V13.0453C18.1914 13.2456 18.2654 13.4459 18.364 13.5962C19.3746 14.9483 19.3746 17.0516 18.364 18.4287C18.2654 18.579 18.1914 18.7542 18.1914 18.9546Z" fill="#C63C49"/>
<path d="M26.0301 25.1142C25.6604 24.7387 25.0441 24.7387 24.6744 25.1142C22.2833 27.543 19.1035 28.8701 15.7512 28.8701C8.7753 28.8451 3.10586 23.0861 3.10586 16C3.10586 8.91393 8.7753 3.15493 15.7512 3.15493C19.1035 3.15493 22.2833 4.482 24.6744 6.9108C25.0441 7.28639 25.6604 7.28639 26.0301 6.9108L26.8682 6.05947C27.2379 5.68388 27.2379 5.03286 26.8682 4.68232C23.8856 1.65258 19.9416 0 15.7512 0C7.04982 0 0 7.16119 0 16C0 24.8388 7.07447 32 15.7512 32C19.9416 32 23.8856 30.3474 26.8682 27.3427C27.2379 26.9671 27.2379 26.3161 26.8682 25.9656L26.0301 25.1142Z" fill="#C63C49"/>
<path d="M15.6528 17.5023C16.4696 17.5023 17.1318 16.8296 17.1318 15.9999C17.1318 15.1702 16.4696 14.4976 15.6528 14.4976C14.836 14.4976 14.1738 15.1702 14.1738 15.9999C14.1738 16.8296 14.836 17.5023 15.6528 17.5023Z" fill="#C63C49"/>
</svg>
